<svg width="46" height="36" viewBox="0 0 46 36" fill="none" xmlns="http://www.w3.org/2000/svg">
<g id="Apple_Inc.-Logo.wine (1)">
<path id="Vector" d="M32.6841 24.3869C32.3211 25.2254 31.8915 25.9972 31.3938 26.7068C30.7153 27.6742 30.1597 28.3438 29.7316 28.7157C29.0679 29.326 28.3568 29.6386 27.5954 29.6564C27.0487 29.6564 26.3895 29.5008 25.6221 29.1853C24.8522 28.8712 24.1446 28.7156 23.4977 28.7156C22.8192 28.7156 22.0915 28.8712 21.3132 29.1853C20.5336 29.5008 19.9057 29.6653 19.4255 29.6815C18.6953 29.7127 17.9675 29.3912 17.241 28.7156C16.7773 28.3112 16.1973 27.6179 15.5025 26.6357C14.7571 25.5868 14.1442 24.3706 13.6641 22.984C13.1499 21.4863 12.8921 20.0359 12.8921 18.6318C12.8921 17.0234 13.2396 15.6362 13.9358 14.4737C14.4829 13.54 15.2107 12.8034 16.1216 12.2627C17.0325 11.722 18.0168 11.4464 19.0768 11.4288C19.6568 11.4288 20.4173 11.6082 21.3625 11.9608C22.305 12.3145 22.9102 12.4939 23.1755 12.4939C23.3738 12.4939 24.0461 12.2842 25.1858 11.866C26.2636 11.4781 27.1731 11.3175 27.9183 11.3808C29.9375 11.5437 31.4545 12.3397 32.4634 13.7737C30.6575 14.8679 29.7642 16.4005 29.7819 18.3665C29.7982 19.8978 30.3538 21.1722 31.4456 22.184C31.9404 22.6536 32.493 23.0166 33.1078 23.2744C32.9745 23.661 32.8337 24.0314 32.6841 24.3869V24.3869ZM28.0531 6.16374C28.0531 7.364 27.6146 8.4847 26.7406 9.52201C25.6858 10.7552 24.41 11.4677 23.0265 11.3553C23.0079 11.2044 22.9986 11.0525 22.9986 10.9005C22.9986 9.74822 23.5002 8.51506 24.391 7.50681C24.8357 6.9963 25.4014 6.57183 26.0873 6.23322C26.7717 5.89966 27.4191 5.71519 28.0279 5.68359C28.0457 5.84405 28.0531 6.00452 28.0531 6.16372V6.16374Z" fill="white"/>
</g>
</svg>
