<svg width="16" height="12" viewBox="0 0 16 12" fill="none" xmlns="http://www.w3.org/2000/svg">
<path id="Exclude" fill-rule="evenodd" clip-rule="evenodd" d="M7.66707 2.61504C9.8918 2.61514 12.0315 3.46925 13.6438 5.00084C13.7652 5.11909 13.9593 5.1176 14.0789 4.9975L15.2395 3.82717C15.3 3.76626 15.3338 3.68375 15.3333 3.5979C15.3328 3.51205 15.2981 3.42994 15.2368 3.36974C11.0049 -0.682491 4.32857 -0.682491 0.0966565 3.36974C0.0353544 3.4299 0.000572274 3.51198 6.99859e-06 3.59783C-0.000558277 3.68368 0.0331399 3.76621 0.0936446 3.82717L1.25459 4.9975C1.37409 5.11778 1.56831 5.11927 1.68965 5.00084C3.30221 3.46915 5.44212 2.61504 7.66707 2.61504ZM9.89504 9.21569C9.95704 9.1549 9.99118 9.07123 9.98941 8.98446C9.98764 8.89768 9.9501 8.81548 9.88567 8.75726C8.60501 7.67499 6.72937 7.67499 5.44871 8.75726C5.38423 8.81543 5.34663 8.8976 5.3448 8.98438C5.34296 9.07116 5.37704 9.15485 5.439 9.21569L7.44464 11.2377C7.50342 11.2971 7.58356 11.3306 7.66719 11.3306C7.75081 11.3306 7.83096 11.2971 7.88974 11.2377L9.89504 9.21569ZM10.9742 7.69628C10.0681 6.87651 8.88942 6.42255 7.66707 6.42263C6.44553 6.42313 5.26774 6.87705 4.36227 7.69628C4.23972 7.81263 4.04667 7.8101 3.92721 7.6906L2.76827 6.52027C2.70709 6.45897 2.6731 6.3757 2.67392 6.28914C2.67474 6.20257 2.7103 6.11996 2.77262 6.05983C5.53178 3.49542 9.8047 3.49542 12.5639 6.05983C12.6261 6.11996 12.6617 6.20253 12.6626 6.28907C12.6635 6.3756 12.6296 6.45888 12.5685 6.52027L11.4093 7.6906C11.2898 7.8101 11.0968 7.81263 10.9742 7.69628Z" fill="black"/>
</svg>
