<svg width="17" height="12" viewBox="0 0 17 12" fill="none" xmlns="http://www.w3.org/2000/svg">
<path id="Exclude" fill-rule="evenodd" clip-rule="evenodd" d="M16 0.666687H15C14.4477 0.666687 14 1.1144 14 1.66669V10.3334C14 10.8856 14.4477 11.3334 15 11.3334H16C16.5523 11.3334 17 10.8856 17 10.3334V1.66669C17 1.1144 16.5523 0.666687 16 0.666687ZM10.333 3H11.333C11.8853 3 12.333 3.44772 12.333 4V10.3333C12.333 10.8856 11.8853 11.3333 11.333 11.3333H10.333C9.78072 11.3333 9.33301 10.8856 9.33301 10.3333V4C9.33301 3.44772 9.78072 3 10.333 3ZM6.66699 5.33337H5.66699C5.11471 5.33337 4.66699 5.78109 4.66699 6.33337V10.3334C4.66699 10.8857 5.11471 11.3334 5.66699 11.3334H6.66699C7.21928 11.3334 7.66699 10.8857 7.66699 10.3334V6.33337C7.66699 5.78109 7.21928 5.33337 6.66699 5.33337ZM2 7.33335H1C0.447715 7.33335 0 7.78107 0 8.33335V10.3334C0 10.8856 0.447715 11.3334 1 11.3334H2C2.55228 11.3334 3 10.8856 3 10.3334V8.33335C3 7.78107 2.55228 7.33335 2 7.33335Z" fill="black"/>
</svg>
